<svg width="123" height="27" viewBox="0 0 123 27" fill="none" xmlns="http://www.w3.org/2000/svg">
<path d="M35.7943 21V6.3H46.0003V9.177H38.7343V21H35.7943Z" fill="#3A3A3A"/>
<path d="M61.4719 6.3V21H58.5319V9.261H52.5049V16.233C52.5049 18.459 52.1409 19.915 51.4129 20.601C50.8389 21.133 49.6629 21.399 47.8849 21.399V19.068C49.0049 18.998 49.5649 17.969 49.5649 15.981V6.3H61.4719Z" fill="#3A3A3A"/>
<path d="M77.3405 13.629C77.3405 15.785 76.8085 17.556 75.7445 18.942C74.5825 20.468 72.9515 21.231 70.8515 21.231C68.7515 21.231 67.1205 20.475 65.9585 18.963C64.9085 17.605 64.3835 15.841 64.3835 13.671C64.3835 11.487 64.9155 9.709 65.9795 8.337C67.1415 6.825 68.7795 6.069 70.8935 6.069C72.9935 6.069 74.6245 6.825 75.7865 8.337C76.8225 9.695 77.3405 11.459 77.3405 13.629ZM74.3165 13.671C74.3165 12.397 74.0575 11.34 73.5395 10.5C72.9375 9.492 72.0345 8.988 70.8305 8.988C69.6405 8.988 68.7445 9.485 68.1425 10.479C67.6525 11.305 67.4075 12.355 67.4075 13.629C67.4075 14.903 67.6665 15.96 68.1845 16.8C68.7865 17.808 69.6895 18.312 70.8935 18.312C72.0835 18.312 72.9795 17.815 73.5815 16.821C74.0715 15.995 74.3165 14.945 74.3165 13.671Z" fill="#3A3A3A"/>
<path d="M92.2033 16.254C92.2033 17.808 91.7133 18.998 90.7333 19.824C89.8093 20.608 88.5563 21 86.9743 21H80.2963V6.3H90.5023V9.177L83.1313 9.156L83.1733 11.802H87.2683C88.7663 11.802 89.9493 12.173 90.8173 12.915C91.7413 13.699 92.2033 14.812 92.2033 16.254ZM89.1793 16.296C89.1793 15.036 88.4793 14.406 87.0793 14.406H83.1733V18.207H87.0793C88.4793 18.207 89.1793 17.57 89.1793 16.296Z" fill="#3A3A3A"/>
<path d="M107.847 6.3L98.7124 21H95.7724L99.3424 15.246L93.7774 6.3H97.1584L99.2374 9.786C99.8394 10.794 100.371 11.753 100.833 12.663C101.295 11.753 101.827 10.794 102.429 9.786L104.508 6.3H107.847Z" fill="#3A3A3A"/>
<path d="M121.327 9.324L118.597 10.584C118.037 9.52 117.141 8.988 115.909 8.988C114.719 8.988 113.823 9.492 113.221 10.5C112.703 11.34 112.444 12.39 112.444 13.65C112.444 14.882 112.71 15.925 113.242 16.779C113.872 17.801 114.768 18.312 115.93 18.312C117.106 18.312 118.065 17.689 118.807 16.443L121.285 17.913C120.207 20.125 118.394 21.231 115.846 21.231C113.76 21.231 112.143 20.468 110.995 18.942C109.945 17.556 109.42 15.792 109.42 13.65C109.42 11.55 109.973 9.793 111.079 8.379C112.283 6.839 113.907 6.069 115.951 6.069C118.485 6.069 120.277 7.154 121.327 9.324Z" fill="#3A3A3A"/>
<path fill-rule="evenodd" clip-rule="evenodd" d="M3.62269 19.3777C3.8111 19.567 4.00849 19.7647 4.2152 19.9717L5.31116 21.0691C5.68665 21.4451 6.03142 21.7904 6.35122 22.1068C5.97999 21.1868 5.7491 20.2145 5.66763 19.2227H3.60675C3.61159 19.2744 3.6169 19.3261 3.62269 19.3777ZM21.8148 17.9214C22.8181 16.8476 23.4043 16.0634 23.6966 15.2085C24.1276 13.9479 24.1276 12.5795 23.6966 11.3189C23.2464 10.0022 22.0992 8.8534 19.8047 6.55575L18.7087 5.45828C16.4142 3.16063 15.2669 2.0118 13.9521 1.56101C12.6932 1.1294 11.3267 1.1294 10.0678 1.56101C8.75292 2.0118 7.60567 3.16063 5.31116 5.45828L4.2152 6.55575C1.92069 8.8534 0.773437 10.0022 0.323266 11.3189C-0.107755 12.5795 -0.107755 13.9479 0.323266 15.2085C0.615454 16.0631 1.20131 16.847 2.20392 17.9202C2.46919 12.7347 6.76617 8.59704 12.0093 8.59704C17.2536 8.59704 21.5502 12.7353 21.8148 17.9214ZM11.3204 25.2503C10.9175 25.2036 10.5182 25.1158 10.1288 24.987C9.53668 24.5085 9.01085 23.9498 8.56734 23.3252C9.43801 22.9346 10.3693 22.6968 11.3204 22.6222V25.2503ZM13.7907 25.0192C13.4328 25.1307 13.067 25.2078 12.6983 25.2504V22.6222C13.6458 22.6976 14.5579 22.9296 15.4072 23.3052C14.9495 23.9509 14.405 24.5274 13.7907 25.0192ZM20.3965 19.3784C20.2083 19.5675 20.0111 19.7649 19.8047 19.9717L18.7087 21.0691C18.3086 21.4698 17.9433 21.8356 17.606 22.1688C17.9922 21.2305 18.2317 20.2368 18.3147 19.2227H20.4126C20.4077 19.2747 20.4024 19.3266 20.3965 19.3784ZM6.66224 14.0583C6.23356 13.7776 5.82767 13.4634 5.44836 13.1187C4.35765 14.4641 3.70842 16.1138 3.5894 17.8426H5.65291C5.73265 16.5262 6.0759 15.2393 6.66224 14.0583ZM11.3204 14.2363V11.0743C10.2378 11.6847 9.3028 12.5265 8.58207 13.5399C9.44863 13.9263 10.3747 14.1618 11.3204 14.2363ZM11.3204 17.8426V15.6196C10.1257 15.5397 8.95609 15.2391 7.87056 14.7331C7.39362 15.7057 7.10943 16.7617 7.0337 17.8426H11.3204ZM11.3204 21.2382V19.2227H7.05039C7.14329 20.2329 7.41747 21.218 7.85976 22.1306C8.94824 21.6213 10.1217 21.3187 11.3204 21.2382ZM12.6983 19.2227V21.2382C13.8815 21.3177 15.0402 21.6134 16.117 22.1106C16.5597 21.2048 16.8355 20.2265 16.9313 19.2227H12.6983ZM12.6983 15.6196V17.8426H16.9483C16.873 16.767 16.5913 15.716 16.1187 14.7472C15.0414 15.2448 13.8821 15.5405 12.6983 15.6196ZM12.6983 11.0953V14.2363C13.6339 14.1627 14.5505 13.9314 15.4091 13.552C14.695 12.5451 13.7698 11.7067 12.6983 11.0953ZM13.847 10.1793C14.7008 10.729 15.4645 11.4075 16.1112 12.1909C16.2951 12.4138 16.4686 12.6451 16.6312 12.8841C16.9788 12.6542 17.3087 12.3986 17.6183 12.1195C16.547 11.1613 15.2488 10.4934 13.847 10.1793ZM7.36196 12.8674C7.52167 12.6347 7.69147 12.4091 7.87089 12.1912C8.51257 11.4134 9.26992 10.739 10.1164 10.1918C8.73538 10.5112 7.4572 11.1744 6.40009 12.1198C6.70234 12.3918 7.0238 12.6417 7.36196 12.8674ZM17.329 14.0763C17.9104 15.2522 18.2506 16.5329 18.3295 17.8426H20.4293C20.3105 16.1138 19.6612 14.4639 18.5703 13.1187C18.1828 13.4706 17.7676 13.7909 17.329 14.0763Z" fill="#3A3A3A"/>
</svg>
