<svg width="25" height="25" viewBox="0 0 25 25" fill="none" xmlns="http://www.w3.org/2000/svg">
<path fill-rule="evenodd" clip-rule="evenodd" d="M3.62269 18.3777C3.8111 18.567 4.00849 18.7647 4.2152 18.9717L5.31116 20.0691C5.68665 20.4451 6.03142 20.7904 6.35122 21.1068C5.97999 20.1868 5.7491 19.2145 5.66763 18.2227H3.60675C3.61159 18.2744 3.6169 18.3261 3.62269 18.3777ZM21.8148 16.9214C22.8181 15.8476 23.4043 15.0634 23.6966 14.2085C24.1276 12.9479 24.1276 11.5795 23.6966 10.3189C23.2464 9.00223 22.0992 7.8534 19.8047 5.55575L18.7087 4.45828C16.4142 2.16063 15.2669 1.0118 13.9521 0.561013C12.6932 0.129401 11.3267 0.129401 10.0678 0.561014C8.75292 1.0118 7.60567 2.16063 5.31116 4.45828L4.2152 5.55575C1.92069 7.8534 0.773438 9.00223 0.323266 10.3189C-0.107755 11.5795 -0.107755 12.9479 0.323266 14.2085C0.615454 15.0631 1.20131 15.847 2.20392 16.9202C2.46919 11.7347 6.76617 7.59704 12.0093 7.59704C17.2536 7.59704 21.5502 11.7353 21.8148 16.9214ZM11.3204 24.2503C10.9175 24.2036 10.5182 24.1158 10.1288 23.987C9.53667 23.5085 9.01085 22.9498 8.56734 22.3252C9.43801 21.9346 10.3693 21.6968 11.3204 21.6222V24.2503ZM13.7907 24.0192C13.4328 24.1307 13.067 24.2078 12.6983 24.2504V21.6222C13.6458 21.6976 14.5579 21.9296 15.4072 22.3052C14.9495 22.9509 14.405 23.5274 13.7907 24.0192ZM20.3965 18.3784C20.2083 18.5675 20.0111 18.7649 19.8047 18.9717L18.7087 20.0691C18.3086 20.4698 17.9433 20.8356 17.606 21.1688C17.9922 20.2305 18.2317 19.2368 18.3147 18.2227H20.4126C20.4077 18.2747 20.4024 18.3266 20.3965 18.3784ZM6.66224 13.0583C6.23356 12.7776 5.82767 12.4634 5.44836 12.1187C4.35765 13.4641 3.70842 15.1138 3.5894 16.8426H5.65291C5.73265 15.5262 6.0759 14.2393 6.66224 13.0583ZM11.3204 13.2363V10.0743C10.2378 10.6847 9.3028 11.5265 8.58207 12.5399C9.44863 12.9263 10.3747 13.1618 11.3204 13.2363ZM11.3204 16.8426V14.6196C10.1257 14.5397 8.95609 14.2391 7.87056 13.7331C7.39362 14.7057 7.10943 15.7617 7.0337 16.8426H11.3204ZM11.3204 20.2382V18.2227H7.05039C7.14329 19.2329 7.41747 20.218 7.85976 21.1306C8.94824 20.6213 10.1217 20.3187 11.3204 20.2382ZM12.6983 18.2227V20.2382C13.8815 20.3177 15.0402 20.6134 16.117 21.1106C16.5597 20.2048 16.8355 19.2265 16.9313 18.2227H12.6983ZM12.6983 14.6196V16.8426H16.9483C16.873 15.767 16.5913 14.716 16.1187 13.7472C15.0414 14.2448 13.8821 14.5405 12.6983 14.6196ZM12.6983 10.0953V13.2363C13.6339 13.1627 14.5505 12.9314 15.4091 12.552C14.695 11.5451 13.7698 10.7067 12.6983 10.0953ZM13.847 9.17931C14.7008 9.72896 15.4645 10.4075 16.1112 11.1909C16.2951 11.4138 16.4686 11.6451 16.6312 11.8841C16.9788 11.6542 17.3087 11.3986 17.6183 11.1195C16.547 10.1613 15.2488 9.49336 13.847 9.17931ZM7.36196 11.8674C7.52167 11.6347 7.69147 11.4091 7.87089 11.1912C8.51257 10.4134 9.26992 9.73903 10.1164 9.19177C8.73538 9.51124 7.4572 10.1744 6.40009 11.1198C6.70234 11.3918 7.0238 11.6417 7.36196 11.8674ZM17.329 13.0763C17.9104 14.2522 18.2506 15.5329 18.3295 16.8426H20.4293C20.3105 15.1138 19.6612 13.4639 18.5703 12.1187C18.1828 12.4706 17.7676 12.7909 17.329 13.0763Z" fill="#3A3A3A"/>
</svg>
