<svg fill="none" viewbox="0 0 84 84"
  xmlns="http://www.w3.org/2000/svg">
  <path d="M42 0C18.843 0 0 18.843 0 42c0 23.16 18.843 42 42 42 23.159 0 42-18.84 42-42C84 18.843 65.16 0 42 0zm28.066 64.686a42.03 42.03 0 00-5.31-4.093 42.043 42.043 0 004.216-15.202h8.974a35.95 35.95 0 01-7.88 19.295zM6.056 45.39h8.816a42.099 42.099 0 004.255 15.28 42.327 42.327 0 00-5.193 4.015A35.924 35.924 0 016.056 45.39zm7.878-26.075a41.653 41.653 0 005.193 4.014 42.027 42.027 0 00-4.318 16.165H5.982a35.938 35.938 0 017.952-20.18zm25.119-8.733V24.09a35.662 35.662 0 01-11.714-2.975 36.155 36.155 0 0111.714-10.532zm0 19.416v9.496H20.716a35.824 35.824 0 013.58-13.283A41.533 41.533 0 0039.053 30zm0 15.392V54a41.534 41.534 0 00-14.804 3.812 36.018 36.018 0 01-3.462-12.422h18.266zm0 14.522v13.535a35.71 35.71 0 01-11.777-10.532 35.597 35.597 0 0111.777-3.003zm5.894 13.412V59.913a35.61 35.61 0 0111.588 2.918 36.209 36.209 0 01-11.588 10.494zm0-19.324v-8.61h18.108a35.816 35.816 0 01-3.484 12.337A41.568 41.568 0 0044.947 54zm0-14.506V30a41.53 41.53 0 0014.631-3.727 35.835 35.835 0 013.55 13.223H44.946zm0-15.405V10.672a36.206 36.206 0 0111.596 10.495 35.629 35.629 0 01-11.596 2.923zm14.6-8.738A42.112 42.112 0 0049.86 6.76a36.022 36.022 0 0116.132 8.288 35.794 35.794 0 01-4.222 3.266 40.135 40.135 0 00-2.225-2.96zm-35.25.002a41.334 41.334 0 00-2.177 2.888 36.143 36.143 0 01-4.115-3.193 36.044 36.044 0 0115.897-8.237 42.029 42.029 0 00-9.605 8.542zm-2.176 50.405a40.512 40.512 0 001.808 2.434 42.066 42.066 0 009.98 8.999 36.031 36.031 0 01-15.902-8.238 35.963 35.963 0 014.114-3.195zm37.483 2.819a42.161 42.161 0 002.171-2.89 36.007 36.007 0 014.22 3.266 36.045 36.045 0 01-16.133 8.288 42.11 42.11 0 009.742-8.664zm9.431-29.083a41.954 41.954 0 00-4.28-16.088 41.877 41.877 0 005.31-4.091 35.924 35.924 0 017.953 20.18h-8.983z" fill="#F3F3F3"></path>
</svg>