<svg width="62" height="60" viewBox="0 0 62 60" fill="none" xmlns="http://www.w3.org/2000/svg">
<path fill-rule="evenodd" clip-rule="evenodd" d="M0.323266 32.9737C0.773438 34.2904 1.92069 35.4392 4.2152 37.7369L8.33987 41.8672C8.9083 29.8511 18.8503 20.2492 30.988 20.2492C43.1262 20.2492 53.0661 29.8495 53.6359 41.8643L57.7577 37.7369C60.0522 35.4392 61.1995 34.2904 61.6497 32.9737C62.0807 31.7131 62.0807 30.3447 61.6497 29.0841C61.1995 27.7674 60.0522 26.6186 57.7577 24.3209L37.6852 4.22098C35.3907 1.92332 34.2435 0.774497 32.9286 0.323709C31.6697 -0.107903 30.3032 -0.107903 29.0443 0.323709C27.7294 0.774497 26.5822 1.92332 24.2877 4.22098L4.2152 24.3209C1.92069 26.6186 0.773438 27.7674 0.323266 29.0841C-0.107755 30.3447 -0.107755 31.7131 0.323266 32.9737ZM50.3564 45.1483C50.3699 45.0281 50.3824 44.9077 50.3937 44.7871H45.5491C45.3567 47.1356 44.8012 49.4366 43.9049 51.6086L50.3564 45.1483ZM17.9314 51.4719C17.0684 49.3401 16.5318 47.0864 16.343 44.7871H11.5838C11.5952 44.9094 11.6078 45.0314 11.6215 45.1533L17.9314 51.4719ZM18.6398 32.861C17.6499 32.2127 16.7126 31.4872 15.8366 30.6912C13.3178 33.798 11.8186 37.6079 11.5437 41.6001H16.309C16.4931 38.5601 17.2858 35.5882 18.6398 32.861ZM29.397 33.272V25.9701C26.8968 27.3795 24.7377 29.3235 23.0733 31.6637C25.0745 32.5562 27.2131 33.1001 29.397 33.272ZM29.397 41.6001V36.4666C26.6381 36.2819 23.937 35.5878 21.4302 34.4193C20.3288 36.6654 19.6725 39.104 19.4977 41.6001H29.397ZM29.397 49.4416V44.7871H19.5362C19.7507 47.1199 20.3839 49.3948 21.4053 51.5025C23.9189 50.3263 26.6287 49.6275 29.397 49.4416ZM29.397 59.9547V52.6377C27.2005 52.8099 25.05 53.3591 23.0393 54.2611C24.7075 56.6105 26.8799 58.556 29.397 59.9547ZM32.5789 52.6377V59.8881C35.0518 58.4758 37.1868 56.5396 38.8346 54.2149C36.8733 53.3476 34.7669 52.8118 32.5789 52.6377ZM32.5789 44.7871V49.4416C35.3113 49.6252 37.9871 50.308 40.4739 51.4563C41.4961 49.3646 42.1331 47.1053 42.3543 44.7871H32.5789ZM32.5789 36.4666V41.6001H42.3936C42.2197 39.1162 41.5691 36.6892 40.4777 34.4519C37.9898 35.6011 35.3127 36.2839 32.5789 36.4666ZM32.5789 26.0185V33.272C34.7397 33.1022 36.8562 32.5679 38.8391 31.6917C37.1901 29.3665 35.0535 27.4303 32.5789 26.0185ZM35.2317 23.9032C37.2033 25.1725 38.967 26.7395 40.4603 28.5486C40.885 29.0634 41.2858 29.5975 41.6613 30.1493C42.4639 29.6184 43.2258 29.0282 43.9407 28.3836C41.4669 26.1708 38.4688 24.6284 35.2317 23.9032ZM20.2557 30.1107C20.6245 29.5733 21.0167 29.0524 21.431 28.5494C22.9128 26.7531 24.6618 25.1958 26.6165 23.932C23.4274 24.6697 20.4756 26.2011 18.0345 28.3844C18.7325 29.0126 19.4748 29.5895 20.2557 30.1107ZM43.2726 32.9027C44.6152 35.6181 45.4009 38.5755 45.5831 41.6001H50.4322C50.1579 37.6078 48.6586 33.7977 46.1393 30.6912C45.2443 31.5039 44.2857 32.2434 43.2726 32.9027Z" fill="white"/>
</svg>
