<svg width="0" height="0" viewBox="0 0 0 0" aria-hidden="true" hidden="">
  <symbol id="download" viewbox="0 0 8 9" fill="none"
    xmlns="http://www.w3.org/2000/svg">
    <path d="M7.5 3h-2V0h-3v3h-2L4 7l3.5-4zM0 8h8v1H0V8z" fill="currentColor"></path>
  </symbol>
  <symbol id="solid-arrow-right" viewbox="0 0 4 10" fill="none"
    xmlns="http://www.w3.org/2000/svg">
    <path d="M.041 9.25V.75L5.541 5l-5.5 4.25z" fill="currentColor"></path>
  </symbol>
  <symbol id="solid-arrow-left" viewbox="0 0 8 10" fill="none"
    xmlns="http://www.w3.org/2000/svg">
    <path d="M5.959 9.25V.75L.459 5l5.5 4.25z" fill="currentColor"></path>
  </symbol>
  <symbol id="arrow-up" viewbox="0 0 9 11" fill="none"
    xmlns="http://www.w3.org/2000/svg">
    <path d="M0 4.5L4.5 0 9 4.5 7.735 5.72 5.382 3.368v7.22H3.618v-7.22L1.25 5.72 0 4.5z" fill="currentColor"></path>
  </symbol>
  <symbol id="arrow-down" viewbox="0 0 9 11" fill="none"
    xmlns="http://www.w3.org/2000/svg">
    <path d="M0 6.08824L4.5 10.5882L9 6.08824L7.73529 4.86765L5.38235 7.22059L5.38235 0L3.61765 0L3.61765 7.22059L1.25 4.86765L0 6.08824Z" fill="currentColor"></path>
  </symbol>
  <symbol id="link-arrow" viewbox="3.270930051803589 4.080359935760498 7.649569511413574 7.64963960647583" preserveAspectRatio="none" fill="none"
    xmlns="http://www.w3.org/2000/svg">
    <path d="M3.72091 4.08036V5.34929L8.74715 5.35379L3.27093 10.83L4.17089 11.73L9.64711 6.25375L9.65161 11.28L10.9205 11.28V4.08036H3.72091Z" fill="currentColor"></path>
  </symbol>
  <symbol id="link-arrow-bold" viewbox="13.2 15.4 33.45 33.4" fill="none"
    xmlns="http://www.w3.org/2000/svg">
    <path d="M46.602 46.22V15.393H16.037v7.709H33.42L13.183 43.34l5.474 5.474 20.235-20.238.046 17.642h7.664z" fill="currentColor"></path>
  </symbol>
  <symbol id="logo" viewbox="0 0 25 25" fill="none"
    xmlns="http://www.w3.org/2000/svg">
    <path fill-rule="evenodd" clip-rule="evenodd" d="M3.71839 18.3777C3.9068 18.567 4.1042 18.7647 4.3109 18.9717L5.40686 20.0691C5.78235 20.4451 6.12712 20.7904 6.44693 21.1068C6.0757 20.1868 5.8448 19.2145 5.76334 18.2227H3.70245C3.70729 18.2744 3.7126 18.3261 3.71839 18.3777ZM21.9105 16.9214C22.9138 15.8476 23.5 15.0634 23.7923 14.2085C24.2233 12.9479 24.2233 11.5795 23.7923 10.3189C23.3421 9.00223 22.1949 7.8534 19.9004 5.55575L18.8044 4.45828C16.5099 2.16063 15.3627 1.0118 14.0478 0.561014C12.7889 0.129402 11.4224 0.129402 10.1635 0.561014C8.84862 1.0118 7.70137 2.16063 5.40686 4.45828L4.3109 5.55575C2.01639 7.8534 0.86914 9.00223 0.418969 10.3189C-0.0120522 11.5795 -0.0120522 12.9479 0.418969 14.2085C0.711157 15.0631 1.29701 15.847 2.29962 16.9202C2.56489 11.7347 6.86188 7.59704 12.1051 7.59704C17.3493 7.59704 21.6459 11.7353 21.9105 16.9214ZM11.4161 24.2503C11.0132 24.2036 10.6139 24.1158 10.2245 23.987C9.63238 23.5085 9.10655 22.9498 8.66304 22.3252C9.53371 21.9346 10.465 21.6968 11.4161 21.6222V24.2503ZM13.8865 24.0192C13.5285 24.1307 13.1628 24.2078 12.794 24.2504V21.6222C13.7415 21.6976 14.6536 21.9296 15.5029 22.3052C15.0452 22.9509 14.5007 23.5274 13.8865 24.0192ZM20.4922 18.3784C20.304 18.5675 20.1068 18.7649 19.9004 18.9717L18.8044 20.0691C18.4043 20.4698 18.039 20.8356 17.7017 21.1688C18.0879 20.2305 18.3274 19.2368 18.4104 18.2227H20.5083C20.5034 18.2747 20.4981 18.3266 20.4922 18.3784ZM6.75794 13.0583C6.32926 12.7776 5.92337 12.4634 5.54406 12.1187C4.45335 13.4641 3.80412 15.1138 3.68511 16.8426H5.74861C5.82836 15.5262 6.1716 14.2393 6.75794 13.0583ZM11.4161 13.2363V10.0743C10.3335 10.6847 9.3985 11.5265 8.67777 12.5399C9.54434 12.9263 10.4704 13.1618 11.4161 13.2363ZM11.4161 16.8426V14.6196C10.2214 14.5397 9.05179 14.2391 7.96626 13.7331C7.48932 14.7057 7.20513 15.7617 7.12941 16.8426H11.4161ZM11.4161 20.2382V18.2227H7.1461C7.23899 19.2329 7.51317 20.218 7.95546 21.1306C9.04394 20.6213 10.2174 20.3187 11.4161 20.2382ZM12.794 18.2227V20.2382C13.9772 20.3177 15.1359 20.6134 16.2127 21.1106C16.6554 20.2048 16.9312 19.2265 17.027 18.2227H12.794ZM12.794 14.6196V16.8426H17.044C16.9687 15.767 16.687 14.716 16.2144 13.7472C15.1371 14.2448 13.9778 14.5405 12.794 14.6196ZM12.794 10.0953V13.2363C13.7296 13.1627 14.6462 12.9314 15.5048 12.552C14.7907 11.5451 13.8655 10.7067 12.794 10.0953ZM13.9427 9.17931C14.7965 9.72896 15.5602 10.4075 16.2069 11.1909C16.3908 11.4138 16.5643 11.6451 16.7269 11.8841C17.0745 11.6542 17.4044 11.3986 17.714 11.1195C16.6427 10.1613 15.3445 9.49336 13.9427 9.17931ZM7.45767 11.8674C7.61737 11.6347 7.78718 11.4091 7.96659 11.1912C8.60827 10.4134 9.36562 9.73903 10.2121 9.19177C8.83109 9.51124 7.5529 10.1744 6.49579 11.1198C6.79805 11.3918 7.11951 11.6417 7.45767 11.8674ZM17.4247 13.0763C18.0061 14.2522 18.3463 15.5329 18.4252 16.8426H20.525C20.4062 15.1138 19.7569 13.4639 18.666 12.1187C18.2785 12.4706 17.8633 12.7909 17.4247 13.0763Z" fill="currentColor"></path>
  </symbol>
  <symbol id="globus" fill="none"
    xmlns="http://www.w3.org/2000/svg" viewbox="0 0 84 84">
    <path d="M42 0C18.843 0 0 18.843 0 42c0 23.16 18.843 42 42 42 23.159 0 42-18.84 42-42C84 18.843 65.16 0 42 0zm28.066 64.686a42.03 42.03 0 00-5.31-4.093 42.043 42.043 0 004.216-15.202h8.974a35.95 35.95 0 01-7.88 19.295zM6.056 45.39h8.816a42.099 42.099 0 004.255 15.28 42.327 42.327 0 00-5.193 4.015A35.924 35.924 0 016.056 45.39zm7.878-26.075a41.653 41.653 0 005.193 4.014 42.027 42.027 0 00-4.318 16.165H5.982a35.938 35.938 0 017.952-20.18zm25.119-8.733V24.09a35.662 35.662 0 01-11.714-2.975 36.155 36.155 0 0111.714-10.532zm0 19.416v9.496H20.716a35.824 35.824 0 013.58-13.283A41.533 41.533 0 0039.053 30zm0 15.392V54a41.534 41.534 0 00-14.804 3.812 36.018 36.018 0 01-3.462-12.422h18.266zm0 14.522v13.535a35.71 35.71 0 01-11.777-10.532 35.597 35.597 0 0111.777-3.003zm5.894 13.412V59.913a35.61 35.61 0 0111.588 2.918 36.209 36.209 0 01-11.588 10.494zm0-19.324v-8.61h18.108a35.816 35.816 0 01-3.484 12.337A41.568 41.568 0 0044.947 54zm0-14.506V30a41.53 41.53 0 0014.631-3.727 35.835 35.835 0 013.55 13.223H44.946zm0-15.405V10.672a36.206 36.206 0 0111.596 10.495 35.629 35.629 0 01-11.596 2.923zm14.6-8.738A42.112 42.112 0 0049.86 6.76a36.022 36.022 0 0116.132 8.288 35.794 35.794 0 01-4.222 3.266 40.135 40.135 0 00-2.225-2.96zm-35.25.002a41.334 41.334 0 00-2.177 2.888 36.143 36.143 0 01-4.115-3.193 36.044 36.044 0 0115.897-8.237 42.029 42.029 0 00-9.605 8.542zm-2.176 50.405a40.512 40.512 0 001.808 2.434 42.066 42.066 0 009.98 8.999 36.031 36.031 0 01-15.902-8.238 35.963 35.963 0 014.114-3.195zm37.483 2.819a42.161 42.161 0 002.171-2.89 36.007 36.007 0 014.22 3.266 36.045 36.045 0 01-16.133 8.288 42.11 42.11 0 009.742-8.664zm9.431-29.083a41.954 41.954 0 00-4.28-16.088 41.877 41.877 0 005.31-4.091 35.924 35.924 0 017.953 20.18h-8.983z" fill="#F3F3F3"></path>
  </symbol>
</svg>