<svg width="81" height="20" viewBox="0 0 81 20" fill="none" xmlns="http://www.w3.org/2000/svg">
<path fill-rule="evenodd" clip-rule="evenodd" d="M63.4209 13.1356C62.9072 13.2667 62.3694 13.3363 61.8156 13.3363C58.1885 13.3363 55.2481 10.3508 55.2481 6.66813C55.2481 2.98543 58.1885 0 61.8156 0C65.4426 0 68.3829 2.98543 68.3829 6.66813C68.3829 7.35643 68.2802 8.02038 68.0895 8.64503C67.6768 7.96851 67.0325 7.45305 66.2689 7.21286C66.2898 7.03429 66.3006 6.85254 66.3006 6.66824C66.3006 4.15297 64.2924 2.11394 61.8151 2.11394C59.3378 2.11394 57.3296 4.15297 57.3296 6.66824C57.3296 9.18351 59.3378 11.2225 61.8151 11.2225C61.9145 11.2225 62.0131 11.2193 62.1109 11.2128C62.3065 12.0038 62.7805 12.6826 63.4209 13.1356ZM4.23296 13.3362C6.63165 13.3362 8.20137 11.8678 8.20137 9.71884C8.20137 7.94596 7.05494 6.79985 5.34412 6.02981L4.37406 5.60003C3.10417 5.04488 2.57505 4.52555 2.57505 3.68388C2.57505 2.8064 3.3511 2.30498 4.19769 2.30498C5.0972 2.30498 5.67923 2.64522 6.31417 3.43317L7.7428 1.94682C6.80802 0.818621 5.66159 0.335108 4.23296 0.335108C2.32813 0.335108 0.511483 1.66029 0.511483 3.70179C0.511483 5.36722 1.44626 6.60287 3.31582 7.44454L4.30351 7.87433C5.55577 8.42947 6.1378 8.9488 6.1378 9.89792C6.1378 10.8112 5.41467 11.3664 4.19769 11.3664C3.12181 11.3664 2.13412 10.6859 1.55209 9.84419L0 11.1694C0.793681 12.4587 2.32813 13.3362 4.23296 13.3362ZM66.244 19.1844C65.8552 19.6668 65.2591 20.0002 64.4987 20.0002C63.2373 20.0002 62.2696 19.0001 62.2696 17.7369C62.2696 16.4736 63.2373 15.4735 64.4987 15.4735C65.2591 15.4735 65.8552 15.8069 66.244 16.2894L65.5615 16.9035C65.3195 16.5964 64.9739 16.3771 64.4987 16.3771C63.7729 16.3771 63.2373 16.9649 63.2373 17.7369C63.2373 18.5089 63.7729 19.0966 64.4987 19.0966C64.9739 19.0966 65.3195 18.8773 65.5615 18.5703L66.244 19.1844ZM71.2091 17.7369C71.2091 19.0001 70.2414 20.0002 68.9626 20.0002C67.6839 20.0002 66.7162 19.0001 66.7162 17.7369C66.7162 16.4736 67.6839 15.4735 68.9626 15.4735C70.2414 15.4735 71.2091 16.4736 71.2091 17.7369ZM67.6839 17.7369C67.6839 18.5089 68.211 19.0966 68.9626 19.0966C69.723 19.0966 70.2327 18.5089 70.2327 17.7369C70.2327 16.9649 69.723 16.3771 68.9626 16.3771C68.211 16.3771 67.6839 16.9649 67.6839 17.7369ZM74.9045 19.93H75.8549V17.3421C75.8549 17.2456 75.8463 17.1491 75.8376 17.0526C76.0364 16.5876 76.3733 16.3683 76.7794 16.3683C77.367 16.3683 77.6521 16.8333 77.6521 17.4561V19.93H78.6025V17.3421C78.6025 16.2455 78.015 15.4735 76.9177 15.4735C76.3301 15.4735 75.8117 15.7104 75.5007 16.1227C75.2328 15.7279 74.8095 15.4735 74.2219 15.4735C73.8158 15.4735 73.3925 15.6051 73.0901 15.9472V15.5437H72.1397V19.93H73.0901V17.0175C73.2629 16.6052 73.6085 16.3683 74.0232 16.3683C74.6107 16.3683 74.9045 16.8333 74.9045 17.4561V19.93ZM11.7546 13.193H9.56754L15.6877 0.335108L21.8255 13.193H19.6385L18.3157 10.3635H13.0597L11.7546 13.193ZM15.6877 4.72254L13.9063 8.55482H17.4691L15.6877 4.72254ZM29.4171 13.3362C31.5513 13.3362 33.4032 12.5483 34.338 11.4559V5.7612H29.6464L28.7822 7.73106H32.3097V10.5068C31.6747 10.9903 30.687 11.3305 29.4171 11.3305C26.9303 11.3305 25.096 9.36068 25.096 6.83567C25.096 4.31066 26.9303 2.34079 29.4171 2.34079C30.881 2.34079 31.9216 2.87803 32.7506 3.82715L34.2674 2.51987C33.1915 1.2126 31.4454 0.335108 29.4171 0.335108C25.8544 0.335108 23.0148 3.18246 23.0148 6.83567C23.0148 10.4889 25.8544 13.3362 29.4171 13.3362ZM40.02 13.1927H37.9741V0.478106H40.02V13.1927ZM44.1826 13.1927H46.2285V7.78452H47.1104L51.1846 13.1927H53.6539L49.4209 7.64126C51.3081 7.15775 52.1899 5.67139 52.1899 4.13131C52.1899 1.98237 50.5849 0.478106 48.2745 0.478106H44.1826V13.1927ZM46.2285 5.97583V2.39425H48.0981C49.4209 2.39425 50.1264 3.07475 50.1264 4.20294C50.1264 5.27742 49.4209 5.97583 48.0981 5.97583H46.2285ZM80.9992 0.478106L75.1788 13.336L69.3585 0.478106H71.6337L75.1788 8.57247L78.724 0.478106H80.9992ZM65.2928 12.5038C66.4383 12.5038 67.3668 11.561 67.3668 10.398C67.3668 9.23498 66.4383 8.29217 65.2928 8.29217C64.1474 8.29217 63.2188 9.23498 63.2188 10.398C63.2188 11.561 64.1474 12.5038 65.2928 12.5038Z" fill="#252523"/>
</svg>
