<svg width="509" height="507" viewBox="0 0 509 507" fill="none" xmlns="http://www.w3.org/2000/svg" aria-hidden="true" class="icon icon_logo header-logo__icon"><path d="M451.418 357.523L474.919 334.023C496.209 312.732 508.169 283.856 508.169 253.748C508.169 223.639 496.209 194.764 474.919 173.473L334.729 33.2828C324.189 22.742 311.676 14.3806 297.904 8.67594C284.132 2.9713 269.371 0.0351562 254.464 0.0351562C239.558 0.0351562 224.797 2.9713 211.025 8.67594C197.253 14.3806 184.74 22.742 174.199 33.2828L33.9993 173.473C12.7101 194.764 0.75 223.639 0.75 253.748C0.75 283.856 12.7101 312.732 33.9993 334.023L57.44 357.46C69.3 259.204 152.971 183.062 254.425 183.062C353.142 183.062 435.023 255.151 450.294 349.557C450.721 352.195 451.096 354.851 451.418 357.523Z" fill="currentcolor"></path><path d="M413.276 395.662H360.364C359.214 417.841 355.38 439.311 349.181 459.752L413.276 395.662Z" fill="currentcolor"></path><path d="M303.247 496.433C304.076 494.908 304.89 493.373 305.687 491.828C293.393 489.881 281.009 488.64 268.6 488.103V506.567C278.65 505.305 288.507 502.702 297.904 498.81C299.707 498.063 301.489 497.27 303.247 496.433Z" fill="currentcolor"></path><path d="M240.25 506.557V488.104C227.845 488.641 215.465 489.883 203.175 491.829C203.964 493.359 204.77 494.879 205.591 496.39C207.379 497.243 209.191 498.05 211.025 498.81C220.397 502.692 230.228 505.292 240.25 506.557Z" fill="currentcolor"></path><path d="M159.651 459.657C153.47 439.244 149.646 417.807 148.497 395.662H95.6469L159.651 459.657Z" fill="currentcolor"></path><path d="M317.488 465.071C301.313 462.161 284.975 460.38 268.6 459.729V395.662H331.971C330.562 419.937 325.56 443.248 317.488 465.071Z" fill="currentcolor"></path><path d="M240.25 459.729V395.662H176.891C178.299 419.937 183.301 443.249 191.373 465.072C207.545 462.162 223.879 460.381 240.25 459.729Z" fill="currentcolor"></path><path d="M331.971 367.312H268.6V303.261C284.977 302.61 301.317 300.829 317.494 297.918C325.562 319.736 330.562 343.042 331.971 367.312Z" fill="currentcolor"></path><path d="M240.25 367.312V303.261C223.877 302.609 207.541 300.828 191.368 297.918C183.299 319.736 178.299 343.042 176.891 367.312H240.25Z" fill="currentcolor"></path><path d="M305.694 271.16C293.398 273.108 281.011 274.35 268.6 274.887V218.184C283.21 234.026 295.721 251.832 305.694 271.16Z" fill="currentcolor"></path><path d="M240.25 274.886V218.197C225.645 234.035 213.138 251.837 203.167 271.161C215.46 273.108 227.842 274.35 240.25 274.886Z" fill="currentcolor"></path><path d="M423.918 367.312H360.364C358.996 340.933 353.832 315.559 345.408 291.724C360.098 287.837 374.586 282.992 388.774 277.187C408.447 302.49 421.128 333.499 423.918 367.312Z" fill="currentcolor"></path><path d="M367.972 254.865C356.951 258.951 345.754 262.421 334.434 265.275C326.675 249.08 317.345 233.782 306.641 219.577C329.602 226.977 350.431 239.125 367.972 254.865Z" fill="currentcolor"></path><path d="M202.224 219.572C179.258 226.971 158.425 239.12 140.881 254.862C151.904 258.949 163.104 262.421 174.428 265.275C182.187 249.079 191.519 233.779 202.224 219.572Z" fill="currentcolor"></path><path d="M163.453 291.725C148.761 287.837 134.269 282.99 120.078 277.184C100.404 302.488 87.7223 333.497 84.9323 367.312H148.498C149.866 340.933 155.029 315.559 163.453 291.725Z" fill="currentcolor"></path></svg>